<?xml version="1.0" ?><!DOCTYPE svg  PUBLIC '-//W3C//DTD SVG 1.1//EN'  'http://www.w3.org/Graphics/SVG/1.1/DTD/svg11.dtd'><svg height="8.26772in" style="shape-rendering:geometricPrecision; text-rendering:geometricPrecision; image-rendering:optimizeQuality; fill-rule:evenodd; clip-rule:evenodd" version="1.1" viewBox="0 0 826772 826772" width="8.26772in" xml:space="preserve" xmlns="http://www.w3.org/2000/svg" xmlns:xlink="http://www.w3.org/1999/xlink"><defs><style type="text/css">
   <![CDATA[
    .fil0 {fill:#719A4E}
    .fil2 {fill:#719A4E}
    .fil1 {fill:#7FAD5B}
    .fil3 {fill:white;fill-rule:nonzero}
   ]]>
  </style></defs><g id="Layer_x0020_1"><circle class="fil0" cx="413386" cy="413386" r="413386"/><path class="fil1" d="M825594 444750c-16029,213654 -194454,382022 -412208,382022 -217755,0 -396180,-168368 -412208,-382022 16028,-213654 194453,-388715 412208,-388715 217754,0 396179,175061 412208,388715z"/><path class="fil2" d="M804065 548790c-56005,161612 -209443,277704 -390050,277974l-88538 -153460 0 -2c-3539,-5090 -5610,-11240 -5610,-17865l0 -54764 0 -10624 0 -1752c0,-3069 511,-6025 1314,-8799l-24645 0c-18856,0 -34171,-15079 -34171,-33590l0 -185193 0 -21576 0 -23522 0 -2930 2 0 16 -21191c0,-45455 30978,-85140 76778,-106059l-6096 -8983 -5989 -8799 -13417 -19824c-1678,-2464 -983,-5733 1443,-7376 2502,-1605 5842,-929 7502,1497l14441 21249 6022 8945 6170 9055c19480,-7467 41221,-11593 64149,-11593 22927,0 44704,4145 64145,11593l6171 -9055 6060 -8945 14439 -21249c1626,-2464 4966,-3102 7467,-1497 2483,1643 3120,4912 1497,7376l-13453 19824 -5989 8799 -6060 8983c45745,20936 76741,60621 76761,106059l29709 31898c5923,-6568 14568,-10707 24195,-10707 15987,0 29243,11354 31886,26312l1 0 153850 209791zm-455374 -299664l0 0c-8964,0 -16192,-7137 -16192,-15900 0,-8799 7228,-15900 16192,-15900 8925,0 16155,7101 16155,15900 -19,8763 -7230,15900 -16155,15900zm129426 0l0 0c-8964,0 -16192,-7137 -16192,-15900 0,-8799 7228,-15900 16192,-15900 8925,0 16191,7101 16191,15900 0,8763 -7266,15900 -16191,15900zm-302043 95362l0 136052c0,17541 14477,31762 32367,31762 17853,0 32364,-14221 32364,-31762l0 -136052c0,-17579 -14511,-31801 -32364,-31801 -17890,0 -32367,14222 -32367,31801z"/><g id="_2016151392480"><path class="fil3" d="M487663 185437l6060 -8983 5989 -8799 13453 -19824c1623,-2464 986,-5733 -1497,-7376 -2501,-1605 -5841,-967 -7467,1497l-14439 21249 -6060 8945 -6171 9055c-19441,-7448 -41218,-11593 -64145,-11593 -22928,0 -44669,4126 -64149,11593l-6170 -9055 -6022 -8945 -14441 -21249c-1660,-2426 -5000,-3102 -7502,-1497 -2426,1643 -3121,4912 -1443,7376l13417 19824 5989 8799 6096 8983c-45800,20919 -76778,60604 -76778,106059l302041 0c-20,-45438 -31016,-85123 -76761,-106059zm-138972 63689l0 0c-8964,0 -16192,-7137 -16192,-15900 0,-8799 7228,-15900 16192,-15900 8925,0 16155,7101 16155,15900 -19,8763 -7230,15900 -16155,15900zm129426 0l0 0c-8964,0 -16192,-7137 -16192,-15900 0,-8799 7228,-15900 16192,-15900 8925,0 16191,7101 16191,15900 0,8763 -7266,15900 -16191,15900z"/><path class="fil3" d="M564404 545892l0 -185177 0 -21576 0 -26452 -2318 0 -297367 0 -2354 0 0 26452 0 21576 0 185193c0,18511 15315,33590 34171,33590l24645 0c-803,2774 -1314,5730 -1314,8799l0 1752 0 10624 0 54764c0,17543 14511,31762 32401,31762 17853,0 32366,-14219 32366,-31762l0 -54764 0 -10624 0 -1752c0,-3069 -475,-6025 -1315,-8799l60096 0c-805,2774 -1280,5730 -1280,8799l0 1752 0 10624 0 54764c0,17543 14513,31762 32367,31762 17853,0 32364,-14219 32364,-31762l0 -54764 0 -10624 0 -1752c0,-3069 -473,-6025 -1314,-8799l24681 0c18856,-20 34171,-15096 34171,-33606z"/><path class="fil3" d="M176074 344488l0 136052c0,17541 14477,31762 32367,31762 17853,0 32364,-14221 32364,-31762l0 -136052c0,-17579 -14511,-31801 -32364,-31801 -17890,0 -32367,14222 -32367,31801z"/><path class="fil3" d="M586000 344488l0 136052c0,17541 14477,31762 32328,31762 17892,0 32367,-14221 32367,-31762l0 -136052c0,-17579 -14475,-31801 -32367,-31801 -17851,0 -32328,14222 -32328,31801z"/></g></g></svg>